<svg width="35" height="35" viewBox="0 0 35 35" fill="none" xmlns="http://www.w3.org/2000/svg">
<path d="M2 4.73529V29.3529C2 31.3679 3.54139 33 5.44444 33H29.5556C31.4586 33 33 31.3679 33 29.3529V11.1176C33 9.10265 31.4586 7.47059 29.5556 7.47059H4.58333C3.15733 7.47059 2 6.24518 2 4.73529V4.73529C2 3.22541 3.15733 2 4.58333 2H26.1111" stroke="#FEBF32" stroke-width="2.5" stroke-linecap="round" stroke-linejoin="round"/>
<path d="M23 24H15.41L23.71 15.71C23.8983 15.5217 24.0041 15.2663 24.0041 15C24.0041 14.7337 23.8983 14.4783 23.71 14.29C23.5217 14.1017 23.2663 13.9959 23 13.9959C22.7337 13.9959 22.4783 14.1017 22.29 14.29L14 22.59V15C14 14.7348 13.8946 14.4804 13.7071 14.2929C13.5196 14.1054 13.2652 14 13 14C12.7348 14 12.4804 14.1054 12.2929 14.2929C12.1054 14.4804 12 14.7348 12 15V25C12.0016 25.1307 12.0288 25.2598 12.08 25.38C12.1815 25.6244 12.3757 25.8185 12.62 25.92C12.7402 25.9712 12.8693 25.9984 13 26H23C23.2652 26 23.5196 25.8946 23.7071 25.7071C23.8946 25.5196 24 25.2652 24 25C24 24.7348 23.8946 24.4804 23.7071 24.2929C23.5196 24.1054 23.2652 24 23 24Z" fill="#FEBF32"/>
</svg>
